<?xml version="1.0" encoding="utf-8"?>
<!-- Generator: Adobe Illustrator 26.3.0, SVG Export Plug-In . SVG Version: 6.00 Build 0)  -->
<svg version="1.1" id="Layer_1" xmlns="http://www.w3.org/2000/svg" xmlns:xlink="http://www.w3.org/1999/xlink" x="0px" y="0px"
	 viewBox="0 0 18 24" style="enable-background:new 0 0 18 24;" xml:space="preserve">
<style type="text/css">
	.st0{fill:#0F91D2;}
</style>
<path class="st0" d="M6.8,10.5c0.3,0,0.6-0.1,0.9-0.2c0.3-0.1,0.5-0.3,0.7-0.5c0.2-0.2,0.4-0.5,0.5-0.7S9,8.5,9,8.2S8.9,7.7,8.8,7.4
	C8.7,7.1,8.6,6.9,8.3,6.7C8.1,6.5,7.9,6.3,7.6,6.2C7.3,6.1,7,6,6.8,6C6.2,6,5.6,6.2,5.2,6.7s-0.7,1-0.7,1.6s0.2,1.2,0.7,1.6
	C5.6,10.3,6.2,10.5,6.8,10.5z"/>
<path class="st0" d="M18,21c0,0.8-0.3,1.6-0.9,2.1C16.6,23.7,15.8,24,15,24H3c-0.8,0-1.6-0.3-2.1-0.9C0.3,22.6,0,21.8,0,21V3
	c0-0.8,0.3-1.6,0.9-2.1C1.4,0.3,2.2,0,3,0h8.2L18,6.8V21z M3,1.5c-0.4,0-0.8,0.2-1.1,0.4S1.5,2.6,1.5,3v15l3.3-3.3
	c0.1-0.1,0.3-0.2,0.4-0.2c0.2,0,0.3,0,0.5,0.1L9,16.5l3.2-4.5c0.1-0.1,0.1-0.2,0.2-0.2c0.1-0.1,0.2-0.1,0.3-0.1c0.1,0,0.2,0,0.3,0
	c0.1,0,0.2,0.1,0.3,0.2l3.1,3.1V6.8h-3c-0.6,0-1.2-0.2-1.6-0.7c-0.4-0.4-0.7-1-0.7-1.6v-3H3z"/>
</svg>
