<?xml version="1.0" encoding="utf-8"?>
<!-- Generator: Adobe Illustrator 26.3.0, SVG Export Plug-In . SVG Version: 6.00 Build 0)  -->
<svg version="1.1" id="Layer_1" xmlns="http://www.w3.org/2000/svg" xmlns:xlink="http://www.w3.org/1999/xlink" x="0px" y="0px"
	 viewBox="0 0 18 24" style="enable-background:new 0 0 18 24;" xml:space="preserve">
<style type="text/css">
	.st0{fill:#0F91D2;}
</style>
<path class="st0" d="M18,21c0,0.8-0.3,1.6-0.9,2.1C16.6,23.7,15.8,24,15,24H3c-0.8,0-1.6-0.3-2.1-0.9C0.3,22.6,0,21.8,0,21V3
	c0-0.8,0.3-1.6,0.9-2.1C1.4,0.3,2.2,0,3,0h8.2L18,6.8V21z M3,1.5c-0.4,0-0.8,0.2-1.1,0.4S1.5,2.6,1.5,3v17.4c0,1,0.7,1.9,1.7,2
	L9,22.5h5.5c1.1,0,2-0.9,2-2V6.8h-3c-0.6,0-1.2-0.2-1.6-0.7c-0.4-0.4-0.7-1-0.7-1.6v-3C11.2,1.5,3,1.5,3,1.5z M14.2,12H3.6v-1h10.6
	C14.2,11,14.2,12,14.2,12z M9.2,6.4H3.6v-1h5.6V6.4z M10.7,9.2H3.6v-1h7.1V9.2z M14.2,15H3.6v-1h10.6C14.2,14,14.2,15,14.2,15z
	 M14.2,17.8H3.6v-1h10.6C14.2,16.8,14.2,17.8,14.2,17.8z M14.2,20.4H3.6v-1h10.6C14.2,19.4,14.2,20.4,14.2,20.4z"/>
</svg>
