<svg xmlns="http://www.w3.org/2000/svg" width="36" height="55" viewBox="0 0 36 55" fill="none">
    <path d="M20.25 20.8976H3C2.385 20.8976 1.875 20.1295 1.875 19.2032C1.875 18.2769 2.385 17.5088 3 17.5088H20.25C20.865 17.5088 21.375 18.2769 21.375 19.2032C21.375 20.1295 20.865 20.8976 20.25 20.8976Z" fill="black"/>
    <path d="M12 38.9712H9C8.385 38.9712 7.875 38.2031 7.875 37.2768C7.875 36.3505 8.385 35.5824 9 35.5824H12C12.615 35.5824 13.125 36.3505 13.125 37.2768C13.125 38.2031 12.615 38.9712 12 38.9712Z" fill="black"/>
    <path d="M21.75 38.9712H15.75C15.135 38.9712 14.625 38.2031 14.625 37.2768C14.625 36.3505 15.135 35.5824 15.75 35.5824H21.75C22.365 35.5824 22.875 36.3505 22.875 37.2768C22.875 38.2031 22.365 38.9712 21.75 38.9712Z" fill="black"/>
    <path d="M26.34 48.008H9.66C3.69 48.008 1.875 45.297 1.875 36.3957V17.8251C1.875 8.92381 3.69 6.21277 9.66 6.21277H20.25C20.865 6.21277 21.375 6.9809 21.375 7.90717C21.375 8.83344 20.865 9.60157 20.25 9.60157H9.66C4.95 9.60157 4.125 10.8215 4.125 17.8251V36.3731C4.125 43.3767 4.95 44.5966 9.66 44.5966H26.325C31.035 44.5966 31.86 43.3767 31.86 36.3731V24.8964C31.86 23.9701 32.37 23.202 32.985 23.202C33.6 23.202 34.11 23.9701 34.11 24.8964V36.3731C34.125 45.297 32.31 48.008 26.34 48.008Z" fill="black"/>
    <path d="M26.9992 18.6394C26.7142 18.6394 26.4292 18.4813 26.2042 18.1424L23.9542 14.7536C23.5192 14.0985 23.5192 13.014 23.9542 12.3589C24.3892 11.7037 25.1092 11.7037 25.5442 12.3589L26.9992 14.5503L32.2042 6.71086C32.6392 6.05569 33.3592 6.05569 33.7942 6.71086C34.2292 7.36603 34.2292 8.45044 33.7942 9.10561L27.7942 18.1424C27.5692 18.4813 27.2842 18.6394 26.9992 18.6394Z" fill="black"/>
  </svg>